<?xml version="1.0" encoding="UTF-8"?>
<svg version="1.1" xmlns="http://www.w3.org/2000/svg" width="500" height="500">
<path d="M0 0 C0 1.32 0 2.64 0 4 C-0.63164062 4.13462646 -1.26328125 4.26925293 -1.9140625 4.40795898 C-62.33740224 17.51673289 -113.46377157 51.88216449 -161 90 C-159.98679687 90.02578125 -158.97359375 90.0515625 -157.9296875 90.078125 C-156.57808403 90.13444181 -155.22652319 90.19178833 -153.875 90.25 C-153.20984375 90.26417969 -152.5446875 90.27835937 -151.859375 90.29296875 C-146.85709241 90.53817868 -143.71952375 91.62953924 -140 95 C-139.34375 97.62890625 -139.34375 97.62890625 -139.5 100.5625 C-139.5515625 101.62210937 -139.603125 102.68171875 -139.65625 103.7734375 C-140.07489731 107.70301343 -140.76841878 111.52959388 -141.54296875 115.40234375 C-142.76817994 122.36615095 -142.43314252 127.7694821 -139 134 C-134.96683183 136.68877878 -131.73905002 136.79389214 -127 136 C-123.48597359 134.17119486 -121.35410486 131.6128738 -119.375 128.1875 C-118.92125 127.465625 -118.4675 126.74375 -118 126 C-116.68 126 -115.36 126 -114 126 C-115.01497271 131.63873728 -116.6680415 134.27202276 -121.2109375 137.77734375 C-125.91910966 140.99493739 -130.35341449 141.68703702 -136 141 C-141.18163551 139.35914876 -144.09743412 137.62260493 -147 133 C-150.43554224 125.27002996 -148.89080977 118.05582026 -147.4453125 110.0546875 C-146.80842741 105.68587927 -146.82466374 101.40288838 -147 97 C-150.78667689 94.44301715 -154.4122334 94.96500316 -158.75 95.375 C-159.44738281 95.43171875 -160.14476562 95.4884375 -160.86328125 95.546875 C-162.57639312 95.68767872 -164.28834611 95.84245972 -166 96 C-166.35320312 97.19367188 -166.70640625 98.38734375 -167.0703125 99.6171875 C-169.34498429 106.41996906 -172.64432521 112.74025291 -175.875 119.125 C-176.20436554 119.78040771 -176.53373108 120.43581543 -176.87307739 121.11108398 C-182.76131243 132.81829951 -189.03686842 144.27344082 -195.61767578 155.60693359 C-196.87686666 157.78683275 -198.11428686 159.97684628 -199.33984375 162.17578125 C-209.9741595 181.23677637 -209.9741595 181.23677637 -214.51953125 182.94921875 C-217 183 -217 183 -218.8125 181.84375 C-221.59604723 177.52192667 -219.54678317 171.58239055 -218.54541016 166.85302734 C-213.66616056 145.41966629 -204.91114088 126.4610059 -189.52734375 110.609375 C-187.37421386 108.3863599 -185.36286251 106.11890775 -183.375 103.75 C-181.00420805 100.97596038 -178.49335587 98.75116208 -175.65234375 96.46875 C-170.49076798 91.90652895 -167.94716428 86.98271116 -165.1875 80.75 C-164.6910498 79.67169922 -164.19459961 78.59339844 -163.68310547 77.48242188 C-162.09341291 74.00038086 -160.54255596 70.50315655 -159 67 C-158.20311768 65.2065918 -158.20311768 65.2065918 -157.39013672 63.37695312 C-144.70197977 38.72069331 -144.70197977 38.72069331 -140 12 C-140.99 10.515 -140.99 10.515 -142 9 C-170.30438099 6.37733173 -208.03241583 38.04228935 -229.0625 54.6875 C-233.82307069 58.67647972 -238.30262924 62.98895023 -242 68 C-242 68.66 -242 69.32 -242 70 C-239.69 70 -237.38 70 -235 70 C-234.01 67.69 -233.02 65.38 -232 63 C-230.68 63 -229.36 63 -228 63 C-228.33 65.31 -228.66 67.62 -229 70 C-219.82153714 69.44960953 -219.82153714 69.44960953 -210.6875 68.4375 C-206.43048555 67.93243049 -202.27963283 67.91084098 -198 68 C-198.33 68.66 -198.66 69.32 -199 70 C-209.378383 72.91527612 -220.31004752 73.88782624 -231 75 C-232.1492567 77.74861395 -233.29451341 80.49877984 -234.4375 83.25 C-234.92573242 84.41595703 -234.92573242 84.41595703 -235.42382812 85.60546875 C-235.73642578 86.35957031 -236.04902344 87.11367188 -236.37109375 87.890625 C-236.65911865 88.58188477 -236.94714355 89.27314453 -237.24389648 89.98535156 C-237.98946031 91.97191686 -238.52784696 93.93306394 -239 96 C-238.113125 95.46375 -237.22625 94.9275 -236.3125 94.375 C-233 93 -233 93 -230.1875 93.5 C-228 95 -228 95 -227.125 97.25 C-226.98583587 100.31161076 -227.37333986 103.00595711 -228 106 C-227.45730469 105.71125 -226.91460937 105.4225 -226.35546875 105.125 C-225.28232422 104.568125 -225.28232422 104.568125 -224.1875 104 C-223.47980469 103.62875 -222.77210938 103.2575 -222.04296875 102.875 C-220 102 -220 102 -217 102 C-217.203125 103.828125 -217.203125 103.828125 -218 106 C-220.109375 107.484375 -220.109375 107.484375 -222.75 108.75 C-223.61109375 109.17796875 -224.4721875 109.6059375 -225.359375 110.046875 C-228.10075251 111.03636629 -230.11154335 111.18702237 -233 111 C-233.63394697 106.95858806 -234.12404452 103.0934693 -234 99 C-239.33129357 103.13447256 -242.7749205 107.28018162 -246.32421875 113.0234375 C-247.15373047 114.00183594 -247.15373047 114.00183594 -248 115 C-249.32 115 -250.64 115 -252 115 C-251.67 112.36 -251.34 109.72 -251 107 C-252.65 107.66 -254.3 108.32 -256 109 C-255.835 109.515625 -255.67 110.03125 -255.5 110.5625 C-254.82060828 113.87453462 -254.63219473 116.62845168 -255 120 C-260.16967085 124.30805904 -265.57549266 124.20724217 -272 124 C-272.66 123.67 -273.32 123.34 -274 123 C-274 121.02 -274 119.04 -274 117 C-275.03125 117.04125 -276.0625 117.0825 -277.125 117.125 C-280.96521456 117.00112211 -283.55458501 116.68264453 -287 115 C-288.16796875 112.41796875 -288.16796875 112.41796875 -289 110 C-296.11447409 112.80891584 -301.31228568 115.71687934 -304.43359375 122.890625 C-305.80931598 126.48908652 -306.97027769 130.13346133 -308.12109375 133.80859375 C-310.6797594 141.65268356 -315.13073077 148.37375746 -322 153 C-329.38449366 155.81953394 -335.7097636 155.59063241 -343.0390625 152.9140625 C-345.648324 151.6977932 -346.89582619 150.68156496 -348 148 C-348 144.63736846 -347.22070134 143.26341772 -345.0625 140.6875 C-344.06002969 139.77116419 -343.03597558 138.87827824 -342 138 C-341.3201001 137.42290283 -340.6402002 136.84580566 -339.93969727 136.2512207 C-333.58774983 131.0310059 -326.94028545 126.68883336 -319.875 122.5 C-318.823125 121.86835938 -317.77125 121.23671875 -316.6875 120.5859375 C-314.12882427 119.05073206 -311.56639512 117.52225287 -309 116 C-310.4804865 116 -311.95921097 116.10686605 -313.4375 116.1875 C-315.2009375 116.0946875 -315.2009375 116.0946875 -317 116 C-319.25345657 112.61981515 -319.21913312 111.00805693 -318.609375 107.06640625 C-317.41367694 103.01176348 -314.81200759 100.16746797 -311.25390625 97.875 C-308.24217003 96.70579911 -305.46845944 96.56810757 -302.25 96.375 C-300.49429688 96.26285156 -300.49429688 96.26285156 -298.703125 96.1484375 C-297.81109375 96.09945312 -296.9190625 96.05046875 -296 96 C-296.56820748 101.45479185 -297.94637945 105.91059256 -300 111 C-297.6005783 109.75652611 -295.20559777 108.50554153 -292.8125 107.25 C-292.13896484 106.90195312 -291.46542969 106.55390625 -290.77148438 106.1953125 C-287.6766166 104.56484557 -285.00262665 103.00213368 -282.2734375 100.78515625 C-278.82681443 98.07878728 -276.3185283 98.21238664 -272 98 C-271.34 98.33 -270.68 98.66 -270 99 C-270.0625 102.3125 -270.0625 102.3125 -271 106 C-274.95935204 108.31584742 -277.40511751 109 -282 109 C-282.495 110.485 -282.495 110.485 -283 112 C-276.83317222 112.42529847 -274.01227657 111.96319543 -269 108 C-268.01 107.34 -267.02 106.68 -266 106 C-266.0323882 103.99193154 -266.06738145 101.98369485 -266.13671875 99.9765625 C-266 98 -266 98 -264.375 95.5 C-261.31593299 93.56795768 -259.5572204 93.47020122 -256 94 C-254.125 95.5 -254.125 95.5 -253 97 C-253.33 97.66 -253.66 98.32 -254 99 C-255.98 98.67 -257.96 98.34 -260 98 C-259.505 101.96 -259.505 101.96 -259 106 C-254.62417378 104.86143551 -250.39193703 103.72216699 -247.46875 100.10546875 C-246.13099446 97.45255489 -245.05958457 94.77719139 -244 92 C-243.38717896 90.52031946 -242.76962822 89.04259263 -242.1484375 87.56640625 C-240.39760812 83.39115061 -238.69069696 79.1999446 -237 75 C-237.71027344 74.86722656 -238.42054688 74.73445313 -239.15234375 74.59765625 C-240.07144531 74.42105469 -240.99054688 74.24445313 -241.9375 74.0625 C-242.85402344 73.88847656 -243.77054687 73.71445313 -244.71484375 73.53515625 C-247 73 -247 73 -248 72 C-248.60675435 68.89038398 -248.54434634 66.83583503 -246.7890625 64.140625 C-238.61878253 54.55109452 -228.73525499 47.10631806 -218.25 40.25 C-217.3732663 39.67138718 -217.3732663 39.67138718 -216.4788208 39.08108521 C-205.22049718 31.65141592 -193.74877175 24.63007992 -182 18 C-181.22446777 17.5580127 -180.44893555 17.11602539 -179.64990234 16.66064453 C-152.87222423 1.49529285 -152.87222423 1.49529285 -139 4 C-135.875 5.4375 -135.875 5.4375 -134 8 C-130.03786131 19.63564781 -137.12017002 33.51214835 -141.625 44 C-142.15810659 45.26159138 -142.69032171 46.52355981 -143.22167969 47.78588867 C-144.8012748 51.52962592 -146.39991953 55.26497225 -148 59 C-148.92995902 61.18347813 -149.85966403 63.36706446 -150.7890625 65.55078125 C-152.84590673 70.37307038 -154.91770962 75.18864723 -157 80 C-156.34257812 79.42894531 -155.68515625 78.85789062 -155.0078125 78.26953125 C-116.66497103 45.58979238 -52.67495423 -1.50499869 0 0 Z M-312 105 C-313.75670469 107.71490725 -314 108.71434047 -314 112 C-310.14304875 111.77960279 -308.98383598 110.98453876 -306.125 108.25 C-303.69510162 105.24390415 -303.69510162 105.24390415 -304.1875 102.125 C-304.5896875 101.073125 -304.5896875 101.073125 -305 100 C-307.54051411 100 -310.18085431 103.26511992 -312 105 Z M-278.625 103.5 C-279.07875 103.995 -279.5325 104.49 -280 105 C-278.35 104.67 -276.7 104.34 -275 104 C-275 103.34 -275 102.68 -275 102 C-277.12364481 101.77390663 -277.12364481 101.77390663 -278.625 103.5 Z M-181.50390625 107.3515625 C-198.52736478 125.25564145 -209.91645594 147.28562445 -213 172 C-210.37635424 169.62787007 -208.78670392 167.12698431 -207.06640625 164.046875 C-206.50574463 163.0463208 -205.94508301 162.0457666 -205.36743164 161.01489258 C-204.7718042 159.93747803 -204.17617676 158.86006348 -203.5625 157.75 C-202.94431396 156.63842529 -202.32612793 155.52685059 -201.68920898 154.3815918 C-195.58982323 143.35899103 -189.73804077 132.21417021 -184 121 C-183.60603027 120.23397461 -183.21206055 119.46794922 -182.80615234 118.67871094 C-178.83868897 112.10803088 -178.83868897 112.10803088 -177 105 C-179.32952605 104.77180536 -179.32952605 104.77180536 -181.50390625 107.3515625 Z M-262 113 C-263.17219543 113.78345715 -264.33763668 114.57702836 -265.5 115.375 C-266.47453125 116.03628906 -266.47453125 116.03628906 -267.46875 116.7109375 C-267.9740625 117.13632812 -268.479375 117.56171875 -269 118 C-269 118.66 -269 119.32 -269 120 C-265.56206661 119.81870185 -265.56206661 119.81870185 -262 119 C-260.48705712 117.06402968 -260.48705712 117.06402968 -260 115 C-260.66 114.34 -261.32 113.68 -262 113 Z M-311 121 C-327.66193955 130.58718842 -327.66193955 130.58718842 -342 143 C-342.08024658 145.59889783 -342.08024658 145.59889783 -341 148 C-336.41067064 151.00751969 -331.26967136 150.56844851 -326 150 C-319.09739452 147.34515174 -316.14318424 140.3101205 -313 134 C-310.94279011 129.24665155 -309.60070073 126.06062368 -311 121 Z " fill="#FCFCFC" transform="translate(500,175)"/>
<path d="M0 0 C2.50008298 3.75012447 2.4421435 6.66280026 2 11 C1.39560609 13.72756479 0.50809938 16.29287381 -0.47265625 18.90625 C-0.73893326 19.63622192 -1.00521027 20.36619385 -1.27955627 21.11828613 C-4.43247804 29.51500812 -8.40934286 37.49702701 -12.4375 45.5 C-27.24677684 72.49474047 -27.24677684 72.49474047 -32 102 C-31.01 103.485 -31.01 103.485 -30 105 C-13.13552657 104.23343303 1.3193404 88.76107668 13 78 C14.10794922 77.02933594 14.10794922 77.02933594 15.23828125 76.0390625 C20.93128552 71.04452767 26.32381303 65.78213199 31.6875 60.4375 C32.40043213 59.72916016 33.11336426 59.02082031 33.84790039 58.29101562 C38.4362652 53.68932339 42.76088768 48.92294617 47 44 C48.62055625 42.18352575 50.24483069 40.37035212 51.875 38.5625 C52.63554687 37.71816406 53.39609375 36.87382812 54.1796875 36.00390625 C56.90402287 33.00479886 56.90402287 33.00479886 59.5 32.875 C62 33 62 33 63 34 C62.63612928 40.75870513 60.58546746 46.25453793 57.9375 52.4375 C57.50630859 53.45739014 57.07511719 54.47728027 56.63085938 55.52807617 C47.47667656 76.81155122 37.04267513 97.64006772 26 118 C29.465 117.505 29.465 117.505 33 117 C33.33 118.32 33.66 119.64 34 121 C33.35933594 121.02835937 32.71867188 121.05671875 32.05859375 121.0859375 C27.96169065 121.53775692 25.00988663 121.9921092 22.0234375 124.97265625 C20.21069415 127.5841655 18.58613559 130.24513292 17 133 C5.8662891 151.05898562 -10.25503056 176.22570559 -32 182 C-36.25251566 182.41153377 -39.41898652 182.47916318 -43 180 C-44.90332709 176.19334582 -44.58792282 172.13807212 -44 168 C-41.18468931 160.63997348 -36.80305809 155.19656271 -31 150 C-29.824375 148.7934375 -29.824375 148.7934375 -28.625 147.5625 C-18.00421755 137.19459332 -5.63581942 127.87284331 8.62890625 123.125 C18.13556895 119.9513898 21.32146086 112.67928937 25.65071106 104.08976746 C26.05085922 103.28026138 26.45100739 102.47075531 26.86328125 101.63671875 C27.29956345 100.76465286 27.73584564 99.89258698 28.18534851 98.99409485 C29.1032588 97.15594909 30.01824534 95.31634062 30.93041992 93.4753418 C32.29186525 90.72912307 33.66366157 87.98827887 35.03710938 85.24804688 C39.57392791 76.16041579 43.97787021 67.02264587 48.16796875 57.76953125 C48.55600174 56.91622726 48.94403473 56.06292328 49.34382629 55.1837616 C49.69466782 54.39971451 50.04550934 53.61566742 50.40698242 52.80786133 C50.71600998 52.11847977 51.02503754 51.42909821 51.34342957 50.71882629 C52.11894658 48.99527127 52.11894658 48.99527127 52 47 C51.65710938 47.40347656 51.31421875 47.80695313 50.9609375 48.22265625 C40.94575765 59.8412516 30.46815314 70.81499686 19 81 C18.17113281 81.76699219 17.34226563 82.53398437 16.48828125 83.32421875 C-12.0153977 109.62471479 -12.0153977 109.62471479 -29.18359375 110.0546875 C-32.57354644 109.8680846 -34.75450728 109.17798222 -37.5 107.1875 C-41.68722778 98.28964097 -38.58970296 89.00542179 -35.609375 80.1730957 C-31.86983204 69.90268267 -26.90989726 60.19105431 -22.07202148 50.40722656 C-17.85548701 41.87494216 -13.77761875 33.32878489 -10.0625 24.5625 C-9.65604248 23.62946045 -9.24958496 22.6964209 -8.83081055 21.73510742 C-6.3724286 15.81473442 -5.26775353 10.4045612 -5 4 C-9.77422043 0.81718638 -14.39281123 1.68583759 -19.796875 2.7421875 C-21.11950428 3.10217631 -22.43719182 3.48069702 -23.75 3.875 C-24.46953857 4.08987061 -25.18907715 4.30474121 -25.93041992 4.52612305 C-39.90696849 8.978842 -53.21925435 16.31684901 -65 25 C-65.78963135 25.57983643 -65.78963135 25.57983643 -66.59521484 26.17138672 C-85.83444299 40.3823724 -102.76262014 56.42319682 -107 81 C-107.50197893 88.52968398 -106.44395565 94.8955158 -101.6875 100.9375 C-98.84235688 103.12098193 -96.45749163 104.1155254 -93 105 C-93 105.99 -93 106.98 -93 108 C-97.79388839 108.39133783 -101.22077701 108.01076174 -105.359375 105.41015625 C-109.91165421 101.49736389 -112.7840465 95.82509655 -113.23828125 89.8828125 C-113.61663044 70.72639558 -106.17856403 55.73186252 -93 42 C-92.21625 40.989375 -91.4325 39.97875 -90.625 38.9375 C-75.410245 21.91146464 -23.70274245 -15.99935115 0 0 Z M7.33984375 127.58984375 C5.86497421 128.3583169 4.39787229 129.14182172 2.9375 129.9375 C2.17107178 130.35064453 1.40464355 130.76378906 0.61499023 131.18945312 C-5.47362978 134.55064418 -10.81662263 138.35283409 -16 143 C-16.85078125 143.7321875 -17.7015625 144.464375 -18.578125 145.21875 C-32.05697396 156.89016032 -32.05697396 156.89016032 -38.4375 172.9375 C-38.29791667 176.10208333 -38.29791667 176.10208333 -36 178 C-23.75329512 177.10841297 -13.70070166 164.68159795 -6 156 C1.48876348 146.94382091 7.78812471 136.95433842 14 127 C10.85245361 125.57970317 10.85245361 125.57970317 7.33984375 127.58984375 Z " fill="#FCFCFC" transform="translate(115,187)"/>
<path d="M0 0 C1.02272938 4.26137242 1.36743053 6.29235601 -0.6875 10.25 C-5.31781352 15.75631878 -5.31781352 15.75631878 -9.5078125 16.36328125 C-10.80332031 16.33814453 -10.80332031 16.33814453 -12.125 16.3125 C-12.99382812 16.30863281 -13.86265625 16.30476563 -14.7578125 16.30078125 C-17 16 -17 16 -19 14 C-19.59815407 9.55656979 -19.3284801 7.52755894 -16.9375 3.6875 C-11.6032148 -1.19280348 -6.89930918 -1.40802228 0 0 Z M-10.6875 4.625 C-13.42708562 7.43862847 -13.73727987 9.14677136 -14 13 C-11.35337395 12.84876423 -9.55721506 12.49998757 -7.5546875 10.703125 C-4.61396997 7.3230761 -4.61396997 7.3230761 -4 3 C-7.95294303 2.65505377 -7.95294303 2.65505377 -10.6875 4.625 Z " fill="#FCFCFC" transform="translate(180,277)"/>
<path d="M0 0 C1.67542976 0.28604898 3.34385343 0.61781233 5 1 C4.67 2.65 4.34 4.3 4 6 C2.35 6.33 0.7 6.66 -1 7 C-1.04254356 5.00045254 -1.04080783 2.99958364 -1 1 C-0.67 0.67 -0.34 0.34 0 0 Z " fill="#FCFCFC" transform="translate(377,283)"/>
</svg>
